<svg xmlns="http://www.w3.org/2000/svg" width="512" height="512" viewBox="0 0 512 512" role="img" aria-labelledby="cotton-title cotton-desc"><title id="cotton-title">白雲</title><desc id="cotton-desc">白到奶油白的圓潤小雲帶著淡天空藍陰影、明亮圓眼、粉紅腮紅與開心笑容。</desc><defs><linearGradient id="cotton-body" x1="0" y1="0" x2="0" y2="1"><stop offset="0" stop-color="#FFFFFF"/><stop offset="1" stop-color="#FFF9EC"/></linearGradient><linearGradient id="cotton-limbs" x1="0" y1="0" x2="0" y2="1"><stop offset="0" stop-color="#FFFFFF"/><stop offset="0.65" stop-color="#FFF9EC"/><stop offset="1" stop-color="#A9DDF0"/></linearGradient></defs><g stroke="#36566F" stroke-width="8" stroke-linecap="round" stroke-linejoin="round"><path d="M115 285 C87 267 65 276 65 296 C65 313 88 326 119 315" fill="url(#cotton-limbs)"/><path d="M397 285 C425 267 447 276 447 296 C447 313 424 326 393 315" fill="url(#cotton-limbs)"/><path d="M192 348 C179 367 172 389 188 398 C207 409 228 388 233 356" fill="url(#cotton-limbs)"/><path d="M279 356 C284 388 305 409 324 398 C340 389 333 367 320 348" fill="url(#cotton-limbs)"/><path d="M155 358 C111 358 85 330 85 294 C85 259 109 234 139 228 C126 187 150 154 184 154 C197 154 209 159 219 168 C227 133 254 113 285 113 C323 113 349 140 350 178 C383 168 414 192 413 225 C432 237 438 260 430 281 C446 319 418 358 376 358 Z" fill="url(#cotton-body)"/><path d="M129 326 C164 348 346 348 384 326" fill="none" stroke="#A9DDF0"/><ellipse cx="179" cy="284" rx="22" ry="13" fill="#F4A6A6" stroke="none"/><ellipse cx="333" cy="284" rx="22" ry="13" fill="#F4A6A6" stroke="none"/><circle cx="207" cy="255" r="17" fill="#36566F" stroke="none"/><circle cx="305" cy="255" r="17" fill="#36566F" stroke="none"/><circle cx="202" cy="249" r="6" fill="#FFF9EC" stroke="none"/><circle cx="300" cy="249" r="6" fill="#FFF9EC" stroke="none"/><path d="M235 283 Q256 312 277 283" fill="none"/></g></svg>